<svg xmlns="http://www.w3.org/2000/svg" xmlns:xlink="http://www.w3.org/1999/xlink" width="1920" zoomAndPan="magnify" viewBox="0 0 1440 809.999993" height="1080" preserveAspectRatio="xMidYMid meet" version="1.0"><defs><g/><clipPath id="d52536d268"><path d="M 804 664 L 1021.898438 664 L 1021.898438 810 L 804 810 Z M 804 664 " clip-rule="nonzero"/></clipPath><clipPath id="155de54b62"><path d="M 418.148438 690 L 615 690 L 615 810 L 418.148438 810 Z M 418.148438 690 " clip-rule="nonzero"/></clipPath></defs><rect x="-144" width="1728" fill="#ffffff" y="-80.999999" height="971.999992" fill-opacity="1"/><rect x="-144" width="1728" fill="#ffffff" y="-80.999999" height="971.999992" fill-opacity="1"/><rect x="-144" width="1728" fill="#ffffff" y="-80.999999" height="971.999992" fill-opacity="1"/><g clip-path="url(#d52536d268)"><path fill="#4b4eaa" d="M 840.382812 909.308594 C 814.402344 817.300781 788.402344 697.167969 818.113281 664.058594 C 818.113281 664.058594 902.207031 676.550781 934.972656 716.832031 C 934.972656 716.832031 974.570312 757.683594 1021.65625 909.308594 L 840.382812 909.308594 " fill-opacity="1" fill-rule="nonzero"/></g><path fill="#38170f" d="M 654.550781 584.0625 C 661.753906 595.828125 697.035156 579.558594 702.09375 567.667969 C 715.523438 536.097656 712.5625 500.09375 708.089844 466.671875 C 704.222656 437.761719 701.851562 342.195312 639.753906 369.289062 C 587.859375 391.914062 587.316406 433.6875 603.480469 479.394531 C 603.480469 479.394531 628.554688 541.59375 654.550781 584.0625 " fill-opacity="1" fill-rule="nonzero"/><path fill="#f8a18f" d="M 661.042969 476.027344 C 646.234375 469.03125 630.804688 485.449219 628.972656 497.269531 C 626.742188 511.683594 633.5625 529.664062 647.40625 538.253906 C 666.191406 549.925781 676.082031 535.113281 678.269531 519.289062 C 680.023438 506.539062 676.726562 483.445312 661.042969 476.027344 " fill-opacity="1" fill-rule="nonzero"/><path fill="#f8a18f" d="M 654.550781 528.382812 L 765.371094 528.316406 L 765.429688 666.160156 L 654.613281 666.207031 L 654.550781 528.382812 " fill-opacity="1" fill-rule="nonzero"/><path fill="#f57c6e" d="M 688.417969 604.667969 C 677.273438 581.335938 670.640625 557.738281 672.464844 528.367188 L 765.371094 528.316406 L 765.429688 648.121094 C 736.238281 643.671875 700.296875 629.515625 688.417969 604.667969 " fill-opacity="1" fill-rule="nonzero"/><path fill="#f8a18f" d="M 810.640625 680.867188 L 762.257812 647.980469 L 658.132812 652.609375 L 603.480469 690.074219 L 810.640625 680.867188 " fill-opacity="1" fill-rule="nonzero"/><path fill="#4b4eaa" d="M 504.859375 909.308594 L 485.839844 773.6875 C 475.734375 726.175781 516.652344 700.746094 516.652344 700.746094 C 591.550781 660.773438 654.066406 645.773438 654.066406 645.773438 C 714.972656 687.5625 764.980469 645.429688 764.980469 645.429688 C 764.980469 645.429688 793.097656 655.160156 853.425781 676.550781 C 853.425781 676.550781 902.824219 693.1875 902.824219 754.1875 L 908.78125 909.308594 L 504.859375 909.308594 " fill-opacity="1" fill-rule="nonzero"/><path fill="#2745a1" d="M 907.589844 881.867188 C 906.003906 841.507812 904.414062 801.144531 902.820312 760.78125 " fill-opacity="1" fill-rule="nonzero"/><path fill="#38170f" d="M 754.851562 374.371094 C 733.671875 370.074219 741.453125 387.671875 748.726562 408.800781 L 778.707031 421.109375 C 803.957031 431.210938 800.703125 454.777344 805.285156 477.546875 C 807.183594 486.90625 811.074219 495.902344 813.398438 504.96875 C 818.363281 495.011719 822.019531 452.214844 821.601562 441.207031 C 821.601562 441.207031 826.21875 383.976562 795.527344 375.796875 C 795.527344 375.796875 767.632812 371.777344 754.851562 374.371094 " fill-opacity="1" fill-rule="nonzero"/><path fill="#f8a18f" d="M 665.933594 544.046875 C 674.808594 568.234375 687.28125 588.214844 709.4375 602.671875 C 731.128906 616.796875 753.722656 624.347656 775.46875 607.332031 C 792.777344 593.804688 804.289062 573.691406 810.992188 553.308594 C 826.429688 506.386719 817.375 440.628906 788.324219 401.703125 C 756.425781 358.953125 692.371094 366.566406 666.476562 412.617188 C 645.382812 450.117188 651.597656 505.003906 665.933594 544.046875 " fill-opacity="1" fill-rule="nonzero"/><path fill="#f57c6e" d="M 649.089844 526.523438 C 650.375 526.523438 651.558594 525.699219 651.957031 524.402344 C 656.222656 510.5625 653.476562 497.230469 645.429688 492.707031 C 643.984375 491.882812 642.148438 492.402344 641.34375 493.851562 C 640.527344 495.296875 641.039062 497.125 642.488281 497.9375 C 647.238281 500.613281 649.933594 510.578125 646.222656 522.636719 C 645.734375 524.222656 646.621094 525.902344 648.207031 526.390625 C 648.5 526.480469 648.796875 526.523438 649.089844 526.523438 " fill-opacity="1" fill-rule="nonzero"/><path fill="#f57c6e" d="M 638.273438 508.976562 C 638.644531 508.976562 639.023438 508.90625 639.390625 508.761719 C 642.433594 507.535156 646.476562 506.933594 648.296875 508.136719 C 649.675781 509.058594 651.539062 508.679688 652.457031 507.292969 C 653.375 505.910156 652.996094 504.046875 651.613281 503.132812 C 646.601562 499.808594 639.28125 502.332031 637.15625 503.1875 C 635.613281 503.804688 634.867188 505.554688 635.484375 507.089844 C 635.957031 508.261719 637.082031 508.976562 638.273438 508.976562 " fill-opacity="1" fill-rule="nonzero"/><path fill="#f57c6e" d="M 700.089844 509.128906 C 700.210938 512.882812 707.179688 515.707031 715.644531 515.449219 C 724.128906 515.183594 730.910156 511.933594 730.785156 508.191406 C 730.671875 504.445312 723.707031 501.617188 715.226562 501.886719 C 706.761719 502.140625 699.976562 505.398438 700.089844 509.128906 " fill-opacity="1" fill-rule="nonzero"/><path fill="#f57c6e" d="M 781.480469 504.417969 C 781.578125 508.167969 788.558594 510.988281 797.023438 510.730469 C 805.496094 510.457031 812.273438 507.214844 812.152344 503.464844 C 812.039062 499.726562 805.089844 496.894531 796.605469 497.164062 C 788.125 497.421875 781.355469 500.675781 781.480469 504.417969 " fill-opacity="1" fill-rule="nonzero"/><path fill="#38170f" d="M 767.761719 471.621094 C 768.519531 471.621094 769.285156 471.433594 769.988281 471.03125 C 784.070312 462.988281 794.644531 468.933594 795.800781 469.644531 C 797.917969 470.921875 800.679688 470.257812 801.972656 468.136719 C 803.257812 466.011719 802.582031 463.253906 800.460938 461.960938 C 793.152344 457.515625 779.617188 455.1875 765.53125 463.230469 C 763.378906 464.460938 762.632812 467.207031 763.859375 469.359375 C 764.6875 470.808594 766.203125 471.621094 767.761719 471.621094 " fill-opacity="1" fill-rule="nonzero"/><path fill="#38170f" d="M 704.0625 473.316406 C 705.117188 473.316406 706.179688 472.945312 707.035156 472.191406 C 712.960938 466.945312 724.742188 465.097656 731.640625 470.488281 C 733.59375 472.015625 736.417969 471.667969 737.945312 469.714844 C 739.472656 467.757812 739.125 464.933594 737.167969 463.40625 C 726.4375 455.03125 709.84375 457.703125 701.082031 465.460938 C 699.222656 467.109375 699.050781 469.949219 700.695312 471.804688 C 701.582031 472.804688 702.816406 473.316406 704.0625 473.316406 " fill-opacity="1" fill-rule="nonzero"/><path fill="#38170f" d="M 683.546875 422.035156 C 670.027344 436.199219 665.476562 486.746094 664.023438 507.460938 C 657.882812 507.433594 656.378906 510.132812 653.875 503.132812 C 651.996094 497.875 649.886719 478.132812 645.832031 474.171875 C 636.152344 464.667969 626.839844 477.132812 624.6875 484.046875 C 595.890625 402.65625 639.085938 363.066406 639.085938 363.066406 C 673.0625 328.796875 729.007812 337.019531 729.007812 337.019531 C 729.007812 337.019531 778.78125 328.050781 803.109375 384.574219 C 803.109375 384.574219 784.839844 424.320312 741.179688 409.550781 C 741.179688 409.550781 702.167969 402.527344 683.546875 422.035156 " fill-opacity="1" fill-rule="nonzero"/><path fill="#1d1e32" d="M 780.484375 486.621094 C 780.441406 491.71875 782.867188 495.882812 785.941406 495.902344 C 788.996094 495.925781 791.519531 491.804688 791.558594 486.714844 C 791.589844 481.613281 789.148438 477.453125 786.074219 477.425781 C 783.027344 477.40625 780.511719 481.519531 780.484375 486.621094 " fill-opacity="1" fill-rule="nonzero"/><path fill="#1d1e32" d="M 714.167969 486.117188 C 714.125 491.210938 716.566406 495.371094 719.625 495.394531 C 722.691406 495.421875 725.203125 491.292969 725.230469 486.191406 C 725.273438 481.097656 722.847656 476.9375 719.769531 476.921875 C 716.707031 476.898438 714.195312 481.007812 714.167969 486.117188 " fill-opacity="1" fill-rule="nonzero"/><path fill="#ffffff" d="M 773.246094 537.941406 C 773.367188 549.957031 764.960938 560.011719 753.980469 560.648438 C 742.996094 561.285156 733.507812 552.28125 732.230469 540.320312 L 773.246094 537.941406 " fill-opacity="1" fill-rule="nonzero"/><path fill="#f68878" d="M 439.949219 909.308594 C 458.398438 828.800781 478.902344 749.496094 490.140625 734.359375 C 549.449219 645.328125 607.398438 746.539062 606.019531 754.835938 C 611.664062 782.347656 591.257812 827.164062 562.335938 909.308594 L 439.949219 909.308594 " fill-opacity="1" fill-rule="nonzero"/><g clip-path="url(#155de54b62)"><path fill="#4b4eaa" d="M 418.398438 909.308594 L 443.746094 794.347656 C 461.710938 720.445312 533.460938 692.089844 533.460938 692.089844 C 606.964844 676.550781 614.125 776.292969 614.125 776.292969 L 584.539062 909.308594 L 418.398438 909.308594 " fill-opacity="1" fill-rule="nonzero"/></g><path fill="#f57c6e" d="M 761.140625 530.675781 C 766.113281 530.675781 772.003906 529.273438 775.421875 526.488281 C 779.1875 523.414062 781.902344 521.195312 781.871094 518.128906 C 781.84375 515.246094 779.359375 513.296875 776.957031 511.40625 C 767.089844 503.664062 763.363281 496.917969 762.195312 484.683594 C 762.035156 483.03125 760.566406 481.84375 758.917969 481.980469 C 757.273438 482.140625 756.0625 483.605469 756.21875 485.253906 C 757.539062 499.050781 762.152344 507.421875 773.25 516.132812 C 773.738281 516.519531 775.066406 517.5625 775.671875 518.21875 C 774.898438 519.160156 772.738281 520.921875 771.625 521.832031 C 768.570312 524.324219 760.984375 525.316406 757.546875 524.246094 C 755.957031 523.742188 754.277344 524.632812 753.789062 526.210938 C 753.292969 527.800781 754.171875 529.480469 755.753906 529.976562 C 757.246094 530.441406 759.117188 530.675781 761.140625 530.675781 " fill-opacity="1" fill-rule="nonzero"/><path fill="#f8f8f8" d="M 817.390625 521.859375 C 817.390625 521.859375 751.980469 502.773438 688.925781 532.851562 C 688.925781 532.851562 691.273438 579.261719 708.734375 606.347656 C 708.734375 606.347656 769.832031 648.933594 801.269531 589.550781 C 801.269531 589.550781 819.78125 553.507812 817.390625 521.859375 " fill-opacity="1" fill-rule="nonzero"/><path fill="#f8f8f8" d="M 673.882812 517.035156 L 700.484375 546.453125 L 702.597656 541.835938 L 664.476562 501.464844 C 664.476562 501.464844 664.152344 504.121094 664.152344 507.210938 C 664.152344 507.210938 669.984375 512.941406 673.882812 517.035156 " fill-opacity="1" fill-rule="nonzero"/><path fill="#f8f8f8" d="M 654.550781 551.648438 L 708.734375 606.347656 L 711.660156 602.195312 L 654.550781 541.59375 C 653.074219 550.238281 652.835938 546.453125 654.550781 551.648438 " fill-opacity="1" fill-rule="nonzero"/><path fill="#c4dde6" d="M 755.144531 553.105469 C 746.488281 553.75 737.660156 553.765625 728.660156 553.152344 C 727.832031 553.09375 727.207031 552.375 727.265625 551.550781 C 727.3125 550.722656 728.042969 550.109375 728.851562 550.164062 C 754.535156 551.929688 778.921875 548.449219 801.324219 539.808594 C 802.09375 539.511719 802.957031 539.898438 803.25 540.664062 C 803.550781 541.441406 803.171875 542.304688 802.394531 542.609375 C 787.449219 548.367188 771.628906 551.886719 755.144531 553.105469 " fill-opacity="1" fill-rule="nonzero"/><path fill="#c4dde6" d="M 761.308594 571.6875 C 754.558594 572.195312 748.574219 571.863281 742.378906 571.136719 C 741.558594 571.03125 740.96875 570.296875 741.066406 569.476562 C 741.164062 568.648438 741.921875 568.078125 742.710938 568.15625 C 755.167969 569.628906 766.714844 569.417969 785.886719 563.863281 C 786.679688 563.613281 787.511719 564.089844 787.738281 564.878906 C 787.976562 565.675781 787.511719 566.511719 786.726562 566.746094 C 776.589844 569.675781 768.503906 571.15625 761.308594 571.6875 " fill-opacity="1" fill-rule="nonzero"/><path fill="#c4dde6" d="M 764.175781 589.707031 C 753.515625 590.503906 742.742188 589.550781 733.320312 586.746094 C 732.523438 586.519531 732.078125 585.675781 732.308594 584.898438 C 732.558594 584.097656 733.394531 583.65625 734.179688 583.875 C 753.25 589.558594 778.007812 587.316406 795.734375 578.3125 C 796.46875 577.945312 797.375 578.230469 797.746094 578.972656 C 798.125 579.710938 797.828125 580.609375 797.09375 580.992188 C 787.480469 585.863281 775.882812 588.835938 764.175781 589.707031 " fill-opacity="1" fill-rule="nonzero"/><g fill="#a6a6a6" fill-opacity="1"><g transform="translate(671.140227, 154.834647)"><g><path d="M 0.605469 -49.914062 C -1.355469 -49.765625 -3.484375 -48.359375 -4.066406 -46.476562 L -5.074219 -43.246094 L 9.757812 -44.355469 L 12.632812 -5.9375 C 12.835938 -3.195312 15.222656 -1.136719 17.96875 -1.34375 L 25.417969 -1.898438 C 22.65625 -5.4375 22.191406 -11.644531 22.003906 -14.128906 L 19.96875 -41.375 C 19.8125 -43.464844 17.992188 -44.972656 15.964844 -44.820312 L 28.378906 -45.75 C 30.339844 -45.894531 32.46875 -47.300781 33.117188 -49.191406 L 34.121094 -52.417969 Z M 0.605469 -49.914062 "/></g></g></g><g fill="#a6a6a6" fill-opacity="1"><g transform="translate(705.809976, 152.13185)"><g><path d="M 36.082031 -9.121094 L 36.136719 -19.667969 C 36.183594 -28.90625 36.804688 -35.195312 28.089844 -35.238281 C 23.175781 -35.261719 20.015625 -32.199219 13.171875 -26.011719 L 13.273438 -45.863281 C 13.285156 -48.613281 11.070312 -50.851562 8.316406 -50.867188 L 2.75 -50.894531 C 3.332031 -49.648438 3.898438 -45.320312 3.878906 -41.585938 L 3.695312 -4.894531 C 3.679688 -2.144531 5.894531 0.09375 8.648438 0.109375 L 14.28125 0.136719 C 13.632812 -1.109375 13.066406 -5.503906 13.085938 -9.238281 L 13.152344 -22.277344 C 20.660156 -29.707031 26.828125 -31.839844 26.773438 -20.632812 L 26.691406 -4.777344 C 26.675781 -2.027344 28.894531 0.210938 31.644531 0.226562 L 37.28125 0.253906 C 36.632812 -0.992188 36.0625 -5.386719 36.082031 -9.121094 Z M 36.082031 -9.121094 "/></g></g></g><g fill="#a6a6a6" fill-opacity="1"><g transform="translate(743.541264, 152.419529)"><g><path d="M 19.390625 -4.105469 C 16.058594 -4.371094 13.03125 -6.78125 11.855469 -11.015625 C 15.75 -11.230469 30.988281 -11.066406 31.882812 -22.300781 C 32.386719 -28.570312 27.699219 -33.28125 20.125 -33.886719 C 9.480469 -34.738281 3.390625 -26.808594 2.625 -17.207031 C 1.855469 -7.609375 6.480469 1.175781 17.191406 2.03125 C 21.5 2.375 25.570312 0.792969 27.664062 -1.539062 C 29.976562 -4.179688 30.03125 -7.328125 28.410156 -9.234375 C 27.230469 -5.976562 23.503906 -3.777344 19.390625 -4.105469 Z M 11.441406 -16.503906 C 12.234375 -26.433594 16.121094 -29.867188 19.453125 -29.601562 C 22.523438 -29.355469 23.941406 -27.335938 23.589844 -22.960938 C 23.273438 -18.976562 19.8125 -15.179688 11.453125 -13.347656 C 11.332031 -14.34375 11.351562 -15.394531 11.441406 -16.503906 Z M 11.441406 -16.503906 "/></g></g></g><g fill="#004aad" fill-opacity="1"><g transform="translate(668.244651, 151.93904)"><g><path d="M 0.605469 -49.914062 C -1.355469 -49.765625 -3.484375 -48.359375 -4.066406 -46.476562 L -5.074219 -43.246094 L 9.757812 -44.355469 L 12.632812 -5.9375 C 12.835938 -3.195312 15.222656 -1.136719 17.96875 -1.34375 L 25.417969 -1.898438 C 22.65625 -5.4375 22.191406 -11.644531 22.003906 -14.128906 L 19.96875 -41.375 C 19.8125 -43.464844 17.992188 -44.972656 15.964844 -44.820312 L 28.378906 -45.75 C 30.339844 -45.894531 32.46875 -47.300781 33.117188 -49.191406 L 34.121094 -52.417969 Z M 0.605469 -49.914062 "/></g></g></g><g fill="#004aad" fill-opacity="1"><g transform="translate(702.914401, 149.23625)"><g><path d="M 36.082031 -9.121094 L 36.136719 -19.667969 C 36.183594 -28.90625 36.804688 -35.195312 28.089844 -35.238281 C 23.175781 -35.261719 20.015625 -32.199219 13.171875 -26.011719 L 13.273438 -45.863281 C 13.285156 -48.613281 11.070312 -50.851562 8.316406 -50.867188 L 2.75 -50.894531 C 3.332031 -49.648438 3.898438 -45.320312 3.878906 -41.585938 L 3.695312 -4.894531 C 3.679688 -2.144531 5.894531 0.09375 8.648438 0.109375 L 14.28125 0.136719 C 13.632812 -1.109375 13.066406 -5.503906 13.085938 -9.238281 L 13.152344 -22.277344 C 20.660156 -29.707031 26.828125 -31.839844 26.773438 -20.632812 L 26.691406 -4.777344 C 26.675781 -2.027344 28.894531 0.210938 31.644531 0.226562 L 37.28125 0.253906 C 36.632812 -0.992188 36.0625 -5.386719 36.082031 -9.121094 Z M 36.082031 -9.121094 "/></g></g></g><g fill="#004aad" fill-opacity="1"><g transform="translate(740.645689, 149.523927)"><g><path d="M 19.390625 -4.105469 C 16.058594 -4.371094 13.03125 -6.78125 11.855469 -11.015625 C 15.75 -11.230469 30.988281 -11.066406 31.882812 -22.300781 C 32.386719 -28.570312 27.699219 -33.28125 20.125 -33.886719 C 9.480469 -34.738281 3.390625 -26.808594 2.625 -17.207031 C 1.855469 -7.609375 6.480469 1.175781 17.191406 2.03125 C 21.5 2.375 25.570312 0.792969 27.664062 -1.539062 C 29.976562 -4.179688 30.03125 -7.328125 28.410156 -9.234375 C 27.230469 -5.976562 23.503906 -3.777344 19.390625 -4.105469 Z M 11.441406 -16.503906 C 12.234375 -26.433594 16.121094 -29.867188 19.453125 -29.601562 C 22.523438 -29.355469 23.941406 -27.335938 23.589844 -22.960938 C 23.273438 -18.976562 19.8125 -15.179688 11.453125 -13.347656 C 11.332031 -14.34375 11.351562 -15.394531 11.441406 -16.503906 Z M 11.441406 -16.503906 "/></g></g></g><g fill="#a6a6a6" fill-opacity="1"><g transform="translate(284.672448, 406.757082)"><g><path d="M 29.972656 -130.445312 L 22.640625 -127.171875 C 28.355469 -120.933594 33.8125 -108.71875 33.8125 -108.71875 L 56.609375 -57.667969 L -10.296875 -106.296875 C -14.460938 -109.0625 -18.894531 -108.625 -23.523438 -106.558594 L -38.3125 -99.953125 C -32.722656 -93.660156 -27.269531 -81.441406 -27.269531 -81.441406 L 5.40625 -8.273438 C 6.609375 -5.574219 9.773438 -4.363281 12.472656 -5.570312 L 22.246094 -9.933594 C 16.53125 -16.171875 11.074219 -28.390625 11.074219 -28.390625 L -12.582031 -81.367188 L 63.582031 -26.851562 L 75.484375 -48.207031 L 40.574219 -126.390625 C 38.792969 -130.375 33.957031 -132.226562 29.972656 -130.445312 Z M 29.972656 -130.445312 "/></g></g></g><g fill="#a6a6a6" fill-opacity="1"><g transform="translate(369.716752, 369.062153)"><g><path d="M -1.785156 -98.363281 L 29.214844 -109.117188 C 33.339844 -110.550781 36.1875 -114.371094 36.445312 -118.785156 L 36.800781 -125.914062 L -31.316406 -102.273438 C -23.761719 -96.398438 -19.378906 -83.761719 -17.621094 -78.703125 L 5.140625 -13.113281 C 7.078125 -7.523438 13.171875 -4.570312 18.757812 -6.511719 L 59.871094 -20.777344 C 63.996094 -22.207031 66.84375 -26.027344 67.101562 -30.441406 C 67.101562 -30.441406 67.347656 -35.742188 67.191406 -37.480469 C 60.671875 -35.214844 33 -25.613281 24.484375 -22.660156 Z M 23.03125 -75.816406 C 19.039062 -74.433594 15.347656 -70.46875 15.089844 -66.054688 L 14.777344 -58.792969 L 35 -65.8125 C 39.125 -67.242188 42.636719 -71.292969 42.941406 -75.574219 L 43.253906 -82.835938 Z M 23.03125 -75.816406 "/></g></g></g><g fill="#a6a6a6" fill-opacity="1"><g transform="translate(438.787003, 342.655656)"><g><path d="M 118.800781 -136.226562 C 115.363281 -135.453125 111.792969 -134.652344 111.792969 -134.652344 L 101.898438 -132.429688 C 109.46875 -127.636719 110.335938 -122.488281 109.441406 -113.628906 L 109.363281 -113.324219 L 109.199219 -112.132812 L 101.703125 -47.804688 L 59.5 -115.550781 C 57.203125 -119.363281 52.570312 -121.355469 48.171875 -120.367188 C 41.714844 -118.917969 33.332031 -117.035156 33.332031 -117.035156 L 40.507812 -105.65625 L 42.773438 -101.980469 C 48.386719 -92.414062 50.050781 -84.996094 48.792969 -73.886719 L 44.160156 -34.742188 L 2.339844 -102.714844 C -0.0976562 -106.496094 -4.730469 -108.488281 -9.128906 -107.5 C -15.585938 -106.050781 -23.828125 -104.199219 -23.828125 -104.199219 L 29.945312 -17.695312 C 33.53125 -12.003906 40.398438 -9.070312 46.992188 -10.550781 L 54.140625 -12.15625 L 54.707031 -17.335938 L 61.09375 -72.460938 L 86.753906 -31.460938 C 90.632812 -25.113281 98.109375 -22.027344 105.390625 -23.664062 L 113.085938 -25.390625 L 113.582031 -28.96875 L 125.320312 -130.328125 C 125.785156 -134.042969 122.371094 -137.027344 118.800781 -136.226562 Z M 118.800781 -136.226562 "/></g></g></g><g fill="#a6a6a6" fill-opacity="1"><g transform="translate(583.719914, 312.786599)"><g/></g></g><g fill="#a6a6a6" fill-opacity="1"><g transform="translate(605.702104, 308.678026)"><g><path d="M 72.378906 -112.585938 L 64.371094 -111.988281 C 67.636719 -104.183594 68.632812 -90.84375 68.632812 -90.84375 L 72.792969 -35.089844 L 26.3125 -103.5 C 23.328125 -107.515625 19.011719 -108.605469 13.953125 -108.226562 L -2.195312 -107.023438 C 0.929688 -99.207031 1.925781 -85.863281 1.925781 -85.863281 L 7.886719 -5.953125 C 8.109375 -3.003906 10.671875 -0.796875 13.621094 -1.015625 L 24.296875 -1.8125 C 21.03125 -9.617188 20.035156 -22.960938 20.035156 -22.960938 L 15.71875 -80.820312 L 68.917969 -3.730469 L 87.351562 -19.792969 L 80.980469 -105.179688 C 80.65625 -109.535156 76.730469 -112.914062 72.378906 -112.585938 Z M 72.378906 -112.585938 "/></g></g></g><g fill="#a6a6a6" fill-opacity="1"><g transform="translate(697.925766, 301.279699)"><g><path d="M 57.390625 -106.652344 C 22.621094 -107.585938 6.003906 -81.691406 5.238281 -53.253906 C 4.476562 -24.957031 19.671875 1.9375 54.441406 2.875 C 89.214844 3.808594 105.976562 -22.222656 106.738281 -50.519531 C 107.503906 -78.957031 92.164062 -105.714844 57.390625 -106.652344 Z M 54.730469 -7.824219 C 38.683594 -8.257812 28.273438 -19.242188 29.167969 -52.609375 C 30.070312 -86.113281 41.058594 -96.523438 57.109375 -96.09375 L 57.105469 -95.953125 C 73.152344 -95.519531 83.566406 -84.671875 82.664062 -51.167969 C 81.765625 -17.804688 70.78125 -7.394531 54.730469 -7.824219 Z M 54.730469 -7.824219 "/></g></g></g><g fill="#a6a6a6" fill-opacity="1"><g transform="translate(803.35302, 304.304869)"><g><path d="M 54.289062 -40.324219 L 54.308594 -40.464844 C 54.167969 -40.480469 54.1875 -40.621094 54.203125 -40.761719 C 77.53125 -37.773438 92.238281 -48.382812 94.332031 -64.726562 C 96.265625 -79.8125 88.101562 -95.910156 61.632812 -99.867188 L 17.492188 -105.523438 C 21.640625 -96.898438 19.941406 -83.628906 19.261719 -78.320312 L 10.441406 -9.453125 C 9.6875 -3.585938 13.828125 1.773438 19.695312 2.523438 L 35.621094 4.5625 C 31.332031 -4.078125 33.03125 -17.347656 33.710938 -22.65625 L 42.535156 -91.523438 L 55.386719 -89.878906 C 69.914062 -88.015625 75.277344 -77.816406 73.9375 -67.339844 C 72.289062 -54.488281 64.371094 -46.984375 51.101562 -48.683594 L 49.707031 -48.863281 C 45.496094 -49.261719 44.847656 -48.632812 39.40625 -39.390625 L 43.175781 -38.910156 C 62.453125 -36.441406 57.871094 -0.679688 75.128906 10.902344 L 93.78125 1.648438 C 74.882812 -17.101562 76.476562 -35.070312 54.289062 -40.324219 Z M 54.289062 -40.324219 "/></g></g></g><g fill="#a6a6a6" fill-opacity="1"><g transform="translate(893.234325, 314.781206)"><g><path d="M 117.972656 6.300781 L 135.421875 -66.414062 C 136.804688 -72.167969 133.265625 -77.941406 127.515625 -79.320312 L 117.105469 -81.820312 L 111.355469 -83.199219 C 113.355469 -77.652344 108.714844 -69.785156 104.804688 -64.351562 C 95.972656 -51.699219 69.242188 -17.5625 69.242188 -17.5625 L 56.085938 -90.671875 C 54.644531 -94.925781 51.171875 -97.355469 46.855469 -98.679688 L 33.847656 -101.800781 L 28.78125 -103.019531 C 31.445312 -95.425781 29.699219 -85.128906 28.359375 -78.933594 L 10.480469 -4.4375 C 9.625 -0.875 11.914062 2.859375 15.609375 3.746094 L 24.511719 5.882812 C 23.785156 -2.546875 26.90625 -15.554688 26.90625 -15.554688 L 40.382812 -71.703125 C 40.382812 -71.703125 49.105469 -22.972656 52.4375 -6.675781 C 53.332031 -2.550781 55.144531 4.980469 62.949219 6.851562 L 110.632812 -54.84375 L 94.035156 14.3125 C 92.984375 18.695312 95.722656 22.972656 99.964844 23.992188 L 115.578125 27.738281 C 114.847656 19.308594 117.972656 6.300781 117.972656 6.300781 Z M 117.972656 6.300781 "/></g></g></g><g fill="#a6a6a6" fill-opacity="1"><g transform="translate(1010.45626, 343.59455)"><g><path d="M 84.921875 -75.871094 C 84.835938 -80.238281 82.066406 -84.214844 77.953125 -85.683594 L 63.628906 -90.792969 L 63.824219 -78.761719 L 2.941406 -6.574219 C 0.566406 -3.683594 1.722656 0.613281 5.171875 1.84375 L 11.804688 4.210938 L 18.171875 6.480469 C 15.699219 1.261719 17.921875 -2.878906 22.125 -7.957031 C 22.171875 -8.089844 22.171875 -8.089844 22.21875 -8.222656 L 26.558594 -13.253906 L 30.210938 -17.632812 L 50.375 -10.441406 C 53.691406 -9.261719 57.316406 -10.210938 59.601562 -12.835938 L 63.386719 -17.164062 L 37.652344 -26.34375 L 64.324219 -57.949219 L 65.722656 16.113281 C 65.894531 20.660156 68.710938 24.503906 72.824219 25.972656 L 87.148438 31.082031 Z M 84.921875 -75.871094 "/></g></g></g><g fill="#a6a6a6" fill-opacity="1"><g transform="translate(1094.220154, 373.591003)"><g><path d="M 33.355469 0.503906 L 67.707031 -74.84375 C 70.164062 -80.222656 67.792969 -86.566406 62.410156 -89.019531 L 47.929688 -95.621094 C 49.339844 -86.15625 43.792969 -73.984375 41.570312 -69.113281 L 11.660156 -3.507812 C 9.789062 0.59375 11.660156 5.316406 15.632812 7.128906 L 62.53125 28.511719 L 62.660156 28.566406 C 66.621094 30.066406 70.945312 29.40625 74.132812 26.832031 C 75.90625 25.320312 77.851562 23.421875 79.613281 21.59375 Z M 33.355469 0.503906 "/></g></g></g><g fill="#004aad" fill-opacity="1"><g transform="translate(278.448476, 400.533107)"><g><path d="M 29.972656 -130.445312 L 22.640625 -127.171875 C 28.355469 -120.933594 33.8125 -108.71875 33.8125 -108.71875 L 56.609375 -57.667969 L -10.296875 -106.296875 C -14.460938 -109.0625 -18.894531 -108.625 -23.523438 -106.558594 L -38.3125 -99.953125 C -32.722656 -93.660156 -27.269531 -81.441406 -27.269531 -81.441406 L 5.40625 -8.273438 C 6.609375 -5.574219 9.773438 -4.363281 12.472656 -5.570312 L 22.246094 -9.933594 C 16.53125 -16.171875 11.074219 -28.390625 11.074219 -28.390625 L -12.582031 -81.367188 L 63.582031 -26.851562 L 75.484375 -48.207031 L 40.574219 -126.390625 C 38.792969 -130.375 33.957031 -132.226562 29.972656 -130.445312 Z M 29.972656 -130.445312 "/></g></g></g><g fill="#004aad" fill-opacity="1"><g transform="translate(363.492777, 362.838149)"><g><path d="M -1.785156 -98.363281 L 29.214844 -109.117188 C 33.339844 -110.550781 36.1875 -114.371094 36.445312 -118.785156 L 36.800781 -125.914062 L -31.316406 -102.273438 C -23.761719 -96.398438 -19.378906 -83.761719 -17.621094 -78.703125 L 5.140625 -13.113281 C 7.078125 -7.523438 13.171875 -4.570312 18.757812 -6.511719 L 59.871094 -20.777344 C 63.996094 -22.207031 66.84375 -26.027344 67.101562 -30.441406 C 67.101562 -30.441406 67.347656 -35.742188 67.191406 -37.480469 C 60.671875 -35.214844 33 -25.613281 24.484375 -22.660156 Z M 23.03125 -75.816406 C 19.039062 -74.433594 15.347656 -70.46875 15.089844 -66.054688 L 14.777344 -58.792969 L 35 -65.8125 C 39.125 -67.242188 42.636719 -71.292969 42.941406 -75.574219 L 43.253906 -82.835938 Z M 23.03125 -75.816406 "/></g></g></g><g fill="#004aad" fill-opacity="1"><g transform="translate(432.563012, 336.431666)"><g><path d="M 118.800781 -136.226562 C 115.363281 -135.453125 111.792969 -134.652344 111.792969 -134.652344 L 101.898438 -132.429688 C 109.46875 -127.636719 110.335938 -122.488281 109.441406 -113.628906 L 109.363281 -113.324219 L 109.199219 -112.132812 L 101.703125 -47.804688 L 59.5 -115.550781 C 57.203125 -119.363281 52.570312 -121.355469 48.171875 -120.367188 C 41.714844 -118.917969 33.332031 -117.035156 33.332031 -117.035156 L 40.507812 -105.65625 L 42.773438 -101.980469 C 48.386719 -92.414062 50.050781 -84.996094 48.792969 -73.886719 L 44.160156 -34.742188 L 2.339844 -102.714844 C -0.0976562 -106.496094 -4.730469 -108.488281 -9.128906 -107.5 C -15.585938 -106.050781 -23.828125 -104.199219 -23.828125 -104.199219 L 29.945312 -17.695312 C 33.53125 -12.003906 40.398438 -9.070312 46.992188 -10.550781 L 54.140625 -12.15625 L 54.707031 -17.335938 L 61.09375 -72.460938 L 86.753906 -31.460938 C 90.632812 -25.113281 98.109375 -22.027344 105.390625 -23.664062 L 113.085938 -25.390625 L 113.582031 -28.96875 L 125.320312 -130.328125 C 125.785156 -134.042969 122.371094 -137.027344 118.800781 -136.226562 Z M 118.800781 -136.226562 "/></g></g></g><g fill="#004aad" fill-opacity="1"><g transform="translate(577.495971, 306.56261)"><g/></g></g><g fill="#004aad" fill-opacity="1"><g transform="translate(599.478112, 302.454051)"><g><path d="M 72.378906 -112.585938 L 64.371094 -111.988281 C 67.636719 -104.183594 68.632812 -90.84375 68.632812 -90.84375 L 72.792969 -35.089844 L 26.3125 -103.5 C 23.328125 -107.515625 19.011719 -108.605469 13.953125 -108.226562 L -2.195312 -107.023438 C 0.929688 -99.207031 1.925781 -85.863281 1.925781 -85.863281 L 7.886719 -5.953125 C 8.109375 -3.003906 10.671875 -0.796875 13.621094 -1.015625 L 24.296875 -1.8125 C 21.03125 -9.617188 20.035156 -22.960938 20.035156 -22.960938 L 15.71875 -80.820312 L 68.917969 -3.730469 L 87.351562 -19.792969 L 80.980469 -105.179688 C 80.65625 -109.535156 76.730469 -112.914062 72.378906 -112.585938 Z M 72.378906 -112.585938 "/></g></g></g><g fill="#004aad" fill-opacity="1"><g transform="translate(691.70175, 295.05571)"><g><path d="M 57.390625 -106.652344 C 22.621094 -107.585938 6.003906 -81.691406 5.238281 -53.253906 C 4.476562 -24.957031 19.671875 1.9375 54.441406 2.875 C 89.214844 3.808594 105.976562 -22.222656 106.738281 -50.519531 C 107.503906 -78.957031 92.164062 -105.714844 57.390625 -106.652344 Z M 54.730469 -7.824219 C 38.683594 -8.257812 28.273438 -19.242188 29.167969 -52.609375 C 30.070312 -86.113281 41.058594 -96.523438 57.109375 -96.09375 L 57.105469 -95.953125 C 73.152344 -95.519531 83.566406 -84.671875 82.664062 -51.167969 C 81.765625 -17.804688 70.78125 -7.394531 54.730469 -7.824219 Z M 54.730469 -7.824219 "/></g></g></g><g fill="#004aad" fill-opacity="1"><g transform="translate(797.129125, 298.080894)"><g><path d="M 54.289062 -40.324219 L 54.308594 -40.464844 C 54.167969 -40.480469 54.1875 -40.621094 54.203125 -40.761719 C 77.53125 -37.773438 92.238281 -48.382812 94.332031 -64.726562 C 96.265625 -79.8125 88.101562 -95.910156 61.632812 -99.867188 L 17.492188 -105.523438 C 21.640625 -96.898438 19.941406 -83.628906 19.261719 -78.320312 L 10.441406 -9.453125 C 9.6875 -3.585938 13.828125 1.773438 19.695312 2.523438 L 35.621094 4.5625 C 31.332031 -4.078125 33.03125 -17.347656 33.710938 -22.65625 L 42.535156 -91.523438 L 55.386719 -89.878906 C 69.914062 -88.015625 75.277344 -77.816406 73.9375 -67.339844 C 72.289062 -54.488281 64.371094 -46.984375 51.101562 -48.683594 L 49.707031 -48.863281 C 45.496094 -49.261719 44.847656 -48.632812 39.40625 -39.390625 L 43.175781 -38.910156 C 62.453125 -36.441406 57.871094 -0.679688 75.128906 10.902344 L 93.78125 1.648438 C 74.882812 -17.101562 76.476562 -35.070312 54.289062 -40.324219 Z M 54.289062 -40.324219 "/></g></g></g><g fill="#004aad" fill-opacity="1"><g transform="translate(887.01043, 308.557231)"><g><path d="M 117.972656 6.300781 L 135.421875 -66.414062 C 136.804688 -72.167969 133.265625 -77.941406 127.515625 -79.320312 L 117.105469 -81.820312 L 111.355469 -83.199219 C 113.355469 -77.652344 108.714844 -69.785156 104.804688 -64.351562 C 95.972656 -51.699219 69.242188 -17.5625 69.242188 -17.5625 L 56.085938 -90.671875 C 54.644531 -94.925781 51.171875 -97.355469 46.855469 -98.679688 L 33.847656 -101.800781 L 28.78125 -103.019531 C 31.445312 -95.425781 29.699219 -85.128906 28.359375 -78.933594 L 10.480469 -4.4375 C 9.625 -0.875 11.914062 2.859375 15.609375 3.746094 L 24.511719 5.882812 C 23.785156 -2.546875 26.90625 -15.554688 26.90625 -15.554688 L 40.382812 -71.703125 C 40.382812 -71.703125 49.105469 -22.972656 52.4375 -6.675781 C 53.332031 -2.550781 55.144531 4.980469 62.949219 6.851562 L 110.632812 -54.84375 L 94.035156 14.3125 C 92.984375 18.695312 95.722656 22.972656 99.964844 23.992188 L 115.578125 27.738281 C 114.847656 19.308594 117.972656 6.300781 117.972656 6.300781 Z M 117.972656 6.300781 "/></g></g></g><g fill="#004aad" fill-opacity="1"><g transform="translate(1004.232292, 337.370546)"><g><path d="M 84.921875 -75.871094 C 84.835938 -80.238281 82.066406 -84.214844 77.953125 -85.683594 L 63.628906 -90.792969 L 63.824219 -78.761719 L 2.941406 -6.574219 C 0.566406 -3.683594 1.722656 0.613281 5.171875 1.84375 L 11.804688 4.210938 L 18.171875 6.480469 C 15.699219 1.261719 17.921875 -2.878906 22.125 -7.957031 C 22.171875 -8.089844 22.171875 -8.089844 22.21875 -8.222656 L 26.558594 -13.253906 L 30.210938 -17.632812 L 50.375 -10.441406 C 53.691406 -9.261719 57.316406 -10.210938 59.601562 -12.835938 L 63.386719 -17.164062 L 37.652344 -26.34375 L 64.324219 -57.949219 L 65.722656 16.113281 C 65.894531 20.660156 68.710938 24.503906 72.824219 25.972656 L 87.148438 31.082031 Z M 84.921875 -75.871094 "/></g></g></g><g fill="#004aad" fill-opacity="1"><g transform="translate(1087.996115, 367.367028)"><g><path d="M 33.355469 0.503906 L 67.707031 -74.84375 C 70.164062 -80.222656 67.792969 -86.566406 62.410156 -89.019531 L 47.929688 -95.621094 C 49.339844 -86.15625 43.792969 -73.984375 41.570312 -69.113281 L 11.660156 -3.507812 C 9.789062 0.59375 11.660156 5.316406 15.632812 7.128906 L 62.53125 28.511719 L 62.660156 28.566406 C 66.621094 30.066406 70.945312 29.40625 74.132812 26.832031 C 75.90625 25.320312 77.851562 23.421875 79.613281 21.59375 Z M 33.355469 0.503906 "/></g></g></g></svg>